<svg width="105" height="16" viewBox="0 0 105 16" fill="none" xmlns="http://www.w3.org/2000/svg">
<path d="M0 13.5815L0.72663 12.7366C1.58314 13.5252 2.42912 14.099 3.26457 14.4581C4.10002 14.8101 5.06184 14.9861 6.15003 14.9861C7.27332 14.9861 8.18951 14.701 8.89859 14.1307C9.60767 13.5604 9.96221 12.8282 9.96221 11.934C9.96221 11.3707 9.84637 10.9025 9.61469 10.5294C9.39003 10.1562 8.96178 9.81826 8.32992 9.51551C7.70509 9.21276 6.82752 8.94521 5.6972 8.71287C3.87887 8.33971 2.57304 7.82222 1.77972 7.1604C0.993413 6.49153 0.60026 5.57624 0.60026 4.41452C0.60026 3.28097 1.06011 2.33399 1.9798 1.5736C2.8995 0.813201 4.0579 0.433003 5.45499 0.433003C6.52212 0.433003 7.45235 0.580858 8.24568 0.876568C9.039 1.16524 9.83233 1.62992 10.6257 2.27063L9.92008 3.15776C9.22505 2.55226 8.51246 2.11573 7.78232 1.84818C7.0592 1.58064 6.26938 1.44686 5.41287 1.44686C4.31766 1.44686 3.42956 1.72497 2.74856 2.28119C2.06756 2.83036 1.72706 3.52035 1.72706 4.35116C1.72706 4.92145 1.83939 5.3967 2.06405 5.7769C2.29573 6.15006 2.73452 6.49857 3.38041 6.82244C4.03333 7.13927 4.946 7.41738 6.11844 7.65677C7.86656 8.01584 9.13027 8.52629 9.90955 9.18812C10.6959 9.84995 11.089 10.7441 11.089 11.8706C11.089 13.0816 10.6186 14.0744 9.67787 14.8488C8.73712 15.6163 7.5366 16 6.07632 16C4.88984 16 3.80867 15.8029 2.83281 15.4086C1.86397 15.0143 0.919697 14.4053 0 13.5815Z" fill="#212121"/>
<path d="M16.4054 15.7888V0H17.4585V15.7888H16.4054Z" fill="#212121"/>
<path d="M23.3752 1.87987V0.433003H24.681V1.87987H23.3752ZM23.5015 15.7888V4.76304H24.5546V15.7888H23.5015Z" fill="#212121"/>
<path d="M30.4397 15.7888V4.76304H31.5033V6.72739C31.7069 6.40352 31.9105 6.12189 32.1141 5.88251C32.3177 5.64312 32.5634 5.4143 32.8513 5.19604C33.1461 4.97074 33.4866 4.79824 33.8728 4.67855C34.2659 4.55886 34.6977 4.49901 35.1681 4.49901C36.0667 4.49901 36.8249 4.72079 37.4427 5.16436C38.0676 5.60088 38.545 6.17118 38.8749 6.87525C39.7946 5.29109 41.118 4.49901 42.8451 4.49901C44.1439 4.49901 45.1724 4.91793 45.9306 5.75578C46.6888 6.59362 47.068 7.70957 47.068 9.10363V15.7888H46.0149V9.23036C46.0149 8.04752 45.727 7.12519 45.1513 6.46337C44.5757 5.80154 43.7788 5.47063 42.7608 5.47063C41.792 5.47063 40.9706 5.82266 40.2966 6.52673C39.6226 7.2308 39.2856 8.17778 39.2856 9.36766V15.7888H38.2326V9.167C38.2326 8.0264 37.9412 7.12519 37.3585 6.46337C36.7828 5.80154 36.0035 5.47063 35.0206 5.47063C34.0378 5.47063 33.2058 5.85435 32.5248 6.62178C31.8438 7.38218 31.5033 8.31859 31.5033 9.43102V15.7888H30.4397Z" fill="#212121"/>
<path d="M52.6439 15.2036V0.059082H53.6969L59.7627 9.01486L65.818 0.059082H66.8816V15.2036H65.7548V2.05512L59.7838 10.768H59.6995L53.718 2.05512V15.2036H52.6439Z" fill="#FC842D"/>
<path d="M72.1032 9.69076C72.1032 8.92333 72.2472 8.18757 72.535 7.4835C72.8228 6.77943 73.2125 6.16689 73.7039 5.64588C74.1954 5.11783 74.7956 4.69891 75.5047 4.38911C76.2138 4.07228 76.9685 3.91387 77.7688 3.91387C78.829 3.91387 79.7908 4.17789 80.6543 4.70595C81.5249 5.22696 82.1988 5.93103 82.6762 6.81816C83.1607 7.69825 83.4029 8.65578 83.4029 9.69076C83.4029 10.7187 83.1607 11.6727 82.6762 12.5528C82.1918 13.4329 81.5108 14.1405 80.6332 14.6756C79.7627 15.2036 78.7939 15.4677 77.7267 15.4677C76.9334 15.4677 76.1857 15.3128 75.4836 15.003C74.7816 14.6932 74.1848 14.2778 73.6934 13.7568C73.202 13.2358 72.8123 12.6232 72.5245 11.9191C72.2436 11.208 72.1032 10.4652 72.1032 9.69076ZM73.2406 9.69076C73.2406 11.0215 73.6758 12.1515 74.5464 13.0809C75.424 14.0032 76.4981 14.4644 77.7688 14.4644C78.5692 14.4644 79.3134 14.2531 80.0014 13.8307C80.6894 13.4012 81.237 12.8204 81.6442 12.0881C82.0514 11.3559 82.255 10.5568 82.255 9.69076C82.255 8.36711 81.8127 7.2406 80.9281 6.31123C80.0435 5.37481 78.9764 4.90661 77.7267 4.90661C76.9123 4.90661 76.1611 5.12135 75.4731 5.55083C74.7851 5.97327 74.241 6.55413 73.8408 7.2934C73.4407 8.02564 73.2406 8.82476 73.2406 9.69076Z" fill="#FC842D"/>
<path d="M88.3717 15.2036V4.17789H89.4354V6.14225C89.639 5.81838 89.8426 5.53675 90.0462 5.29737C90.2498 5.05798 90.4955 4.82916 90.7833 4.6109C91.0782 4.38559 91.4187 4.2131 91.8048 4.09341C92.198 3.97371 92.6297 3.91387 93.1001 3.91387C93.9987 3.91387 94.757 4.13565 95.3748 4.57921C95.9996 5.01574 96.477 5.58603 96.807 6.2901C97.7267 4.70595 99.0501 3.91387 100.777 3.91387C102.076 3.91387 103.104 4.33279 103.863 5.17063C104.621 6.00848 105 7.12443 105 8.51849V15.2036H103.947V8.64522C103.947 7.46238 103.659 6.54005 103.083 5.87822C102.508 5.2164 101.711 4.88548 100.693 4.88548C99.724 4.88548 98.9026 5.23752 98.2286 5.94159C97.5547 6.64566 97.2177 7.59263 97.2177 8.78251V15.2036H96.1646V8.58185C96.1646 7.44126 95.8732 6.54005 95.2905 5.87822C94.7148 5.2164 93.9356 4.88548 92.9527 4.88548C91.9698 4.88548 91.1379 5.2692 90.4569 6.03664C89.7759 6.79704 89.4354 7.73345 89.4354 8.84588V15.2036H88.3717Z" fill="#FC842D"/>
</svg>
